<?xml version="1.0" encoding="UTF-8" standalone="no"?> <svg xmlns="http://www.w3.org/2000/svg" viewBox="0 0 64 64"><g id="Layer_15" data-name="Layer 15"><path d="M40.1,33.51a11.78,11.78,0,0,0-16.2,0l-9.77,9.24c-5.6,5.09-1.56,14.82,6,14.44,4.1-.11,7.43-2.21,11.86-2.13,4.59-.08,8,1.77,12.12,2.13,7.43.17,11.27-9.45,5.75-14.44ZM50,51.18a6.3,6.3,0,0,1-6.1,4C40.05,54.62,36.66,53,32,53.06s-8,2-12.12,2.13a6.35,6.35,0,0,1-4.37-11L25.27,35a9.8,9.8,0,0,1,13.46,0l9.76,9.24A6.28,6.28,0,0,1,50,51.18Z"/><path d="M56.92,19.93c-3.82-.75-6.74,3.5-7.5,7.16-2.28,11.33,8.7,13.49,11.27,2.5C61.74,24.88,60.08,20.63,56.92,19.93Zm1.82,9.23c-2.14,8.5-9,7-7.37-1.63h0C53.11,19.8,60.31,19.7,58.74,29.16Z"/><path d="M40.73,26.05c3.8,0,6.89-4.32,6.89-9.62-.38-12.76-13.4-12.76-13.77,0C33.85,21.73,36.94,26.05,40.73,26.05Zm0-17.24c6.45.44,6.45,14.8,0,15.24C34.28,23.61,34.29,9.25,40.73,8.81Z"/><path d="M14.58,27.09c-.75-3.66-3.68-7.91-7.5-7.16C0,21.72,3,36.81,9.92,36.85,13.84,36.72,15.65,32.17,14.58,27.09Zm-4.2,7.71c-4.93.74-7.65-11.51-2.87-12.91,2.88-.28,4.5,3.11,5.12,5.64h0C13.41,31,12.38,34.36,10.38,34.8Z"/><path d="M23.27,26.05c3.79,0,6.88-4.32,6.88-9.62-.37-12.76-13.39-12.76-13.77,0C16.38,21.73,19.47,26.05,23.27,26.05Zm0-17.24c6.45.44,6.44,14.8,0,15.24C16.82,23.61,16.82,9.25,23.27,8.81Z"/></g></svg>